# xmcd CD database file
#
# Track frame offsets:
#	150
#	13145
#	29366
#	44364
#	57885
#	74054
#	89037
#	112720
#	124730
#
# Disc length: 1874 seconds
#
# Revision: 0
# Processed by: cddbd v1.5.1PL0 Copyright (c) Steve Scherf et al.
# Submitted via: CDex 1.51
#
DISCID=7b075009
DTITLE=saloon drifters - black coffee
DYEAR=1900
DGENRE=Country
TTITLE0=OKIE FROM MUSKOGEE
TTITLE1=THE COWBOY RIDES AGAIN
TTITLE2=I DON'T CARE (IF YOU DON'T LOVE ME ANYMORE)
TTITLE3=BEAUTIFUL BODY
TTITLE4=ONE NIGHT AT A TIME
TTITLE5=TRASHY WOMEN
TTITLE6=THE DANCE
TTITLE7=FOLSOM PRISON BLUES
TTITLE8=BLACK COFFEE
EXTD=
EXTT0=
EXTT1=
EXTT2=
EXTT3=
EXTT4=
EXTT5=
EXTT6=
EXTT7=
EXTT8=
PLAYORDER=
